<svg width="661" height="160" viewBox="0 0 661 160" fill="none" xmlns="http://www.w3.org/2000/svg">
<ellipse cx="22.6876" cy="136.496" rx="22.6876" ry="22.7493" fill="#FC5C50"/>
<path d="M22.8488 56.7552C10.2298 56.7552 0 66.933 0 79.488V112.408C4.47399 106.242 11.8126 102.221 20.1069 102.221H63.9766C76.5959 102.221 86.8254 92.0429 86.8254 79.488C86.8254 79.441 86.8253 79.394 86.825 79.3471L86.8254 56.7552H22.8488Z" fill="#2063F8"/>
<path d="M22.7504 0C10.1857 0 0 10.1778 0 22.7327V55.6532C4.45473 49.4866 11.7617 45.4655 20.0204 45.4655H91.0018C103.567 45.4655 113.752 35.2877 113.752 22.7327C113.752 22.6858 113.752 22.6388 113.752 22.5919L113.752 0H22.7504Z" fill="#02B2FE"/>
<path d="M648.75 79.883C655.173 79.883 660.348 74.6895 660.348 68.2776C660.348 61.8656 655.158 56.6721 648.75 56.6721C642.342 56.6721 637.152 61.8656 637.152 68.2776C637.152 74.6895 642.342 79.883 648.75 79.883ZM648.75 76.822C644.039 76.822 640.226 72.9923 640.226 68.2776C640.226 63.5629 644.039 59.7331 648.75 59.7331C653.476 59.7331 657.289 63.5629 657.289 68.2776C657.289 73.0068 653.476 76.822 648.75 76.822ZM644.561 73.5H647.344V69.9023H649.127L650.78 73.5H653.824L651.795 69.3801C652.824 68.7998 653.505 67.7698 653.505 66.3336C653.505 64.0851 651.824 62.794 649.794 62.794H644.561V73.5ZM647.344 67.8859V64.854H649.098C649.881 64.854 650.577 65.2746 650.577 66.3336C650.577 67.3636 649.896 67.8859 649.084 67.8859H647.344Z" fill="white"/>
<path d="M147.946 115.94H187.535V94.7082H147.946V74.8565H198.409V53.6252H122.752V157.712H147.946V115.94Z" fill="white"/>
<path d="M223.106 94.1717L222.34 84.1309H199.597V157.712H223.719V122.301C223.719 108.581 231.453 103.599 240.565 103.599C243.628 103.599 246.768 104.136 249.831 105.209L251.286 84.1309C248.223 83.1344 245.236 82.5979 242.326 82.5979C233.827 82.5979 226.552 86.8902 223.106 94.1717Z" fill="white"/>
<path d="M304.699 84.1309V125.137C304.699 132.495 299.951 137.248 292.753 137.248C286.397 137.248 281.573 132.419 281.573 125.137V84.1309H257.452V127.437C257.452 145.679 271.006 159.245 292.753 159.245C314.5 159.245 328.82 145.679 328.82 126.977V84.1309H304.699Z" fill="white"/>
<path d="M365.31 84.1309H341.189V157.712H365.31V84.1309ZM353.134 74.7032C360.945 74.7032 366.459 69.3379 366.459 61.5199C366.459 53.6252 360.945 48.2598 353.134 48.2598C345.324 48.2598 339.963 53.7018 339.963 61.5199C339.963 69.3379 345.4 74.7032 353.134 74.7032Z" fill="white"/>
<path d="M428.907 103.829V84.1309H408.155V60.5234H384.8V84.1309H373.084V103.829H384.8V131.499C384.8 151.121 396.975 159.245 413.822 159.245C419.948 159.245 427.988 157.866 433.349 155.873L431.664 136.251C420.025 139.01 408.921 140.083 408.921 127.59V103.829H428.907Z" fill="white"/>
<path d="M464.631 84.1309H440.51V157.712H464.631V84.1309ZM452.456 74.7032C460.267 74.7032 465.78 69.3379 465.78 61.5199C465.78 53.6252 460.267 48.2598 452.456 48.2598C444.645 48.2598 439.285 53.7018 439.285 61.5199C439.285 69.3379 444.722 74.7032 452.456 74.7032Z" fill="white"/>
<path d="M513.909 82.5979C491.166 82.5979 474.396 99.0005 474.396 120.922C474.396 142.843 491.166 159.245 513.909 159.245C536.652 159.245 553.422 142.843 553.422 120.922C553.422 99.0005 536.652 82.5979 513.909 82.5979ZM513.909 103.983C523.098 103.983 529.531 110.957 529.531 120.922C529.531 130.886 523.098 137.861 513.909 137.861C504.72 137.861 498.288 130.886 498.288 120.922C498.288 110.957 504.72 103.983 513.909 103.983Z" fill="white"/>
<path d="M635.934 157.712V109.884C635.934 92.3321 622.61 82.5979 608.75 82.5979C600.097 82.5979 591.214 85.2806 586.007 91.8722L585.241 84.1309H563.111V157.712H587.232V116.783C587.232 108.581 593.435 104.672 599.484 104.672C605.304 104.672 611.813 108.581 611.813 116.783V157.712H635.934Z" fill="white"/>
</svg>
