<?xml version="1.0" encoding="utf-8"?>
<!-- Generator: Adobe Illustrator 18.0.0, SVG Export Plug-In . SVG Version: 6.00 Build 0)  -->
<!DOCTYPE svg PUBLIC "-//W3C//DTD SVG 1.1//EN" "http://www.w3.org/Graphics/SVG/1.1/DTD/svg11.dtd">
<svg version="1.1" id="Layer_1" xmlns="http://www.w3.org/2000/svg" xmlns:xlink="http://www.w3.org/1999/xlink" x="0px" y="0px"
	 viewBox="0 0 863.5 925.2" enable-background="new 0 0 863.5 925.2" xml:space="preserve">
<g>
	<g>
		<path fill="#28A8E0" d="M368.2,814.4c0,19.7-8.5,35.6-28.4,35.6c-19.9,0-28.4-15.9-28.4-35.6v-67.2h-36.2v67.2
			c0,38.8,25.2,70.3,64.4,70.3c39.2,0,64.8-31.5,64.8-70.3v-67.2h-36.3L368.2,814.4z"/>
	</g>
	<g>
		<rect x="731.6" y="706.2" fill="#28A8E0" width="36.1" height="175"/>
	</g>
	<g>
		<polygon fill="#28A8E0" points="794.4,712.7 804.7,712.7 804.7,740.4 812.3,740.4 812.3,712.7 822.6,712.7 822.6,706.4 
			794.4,706.4 		"/>
	</g>
	<g>
		<polygon fill="#28A8E0" points="852.9,706.4 845.3,729.8 845.2,729.8 837.1,706.4 826.5,706.4 826.5,740.4 833.6,740.4 
			833.6,716.5 833.7,716.5 842.1,740.4 847.9,740.4 856.3,716.3 856.4,716.3 856.4,740.4 863.5,740.4 863.5,706.4 		"/>
	</g>
	<g>
		<path fill="#28A8E0" d="M194.1,770.9c-0.4,0.8-0.4,1.3-1.8,1.2c-1.1,0-1.3-1.2-1.3-1.2l-3.9-23.4h-32.3v133.7h36.3v-72.4
			c0-5.9,16.1-34.3,47.2-27c15.7,3.7,22.4,10.3,22.4,10.3s0-25.8,0-40.7c-5.8-3-9.8-4.5-15.1-5.7
			C214.6,738.6,194.9,769.2,194.1,770.9z"/>
	</g>
	<g>
		<path fill="#28A8E0" d="M488.7,744.6c-39.5,0-71.5,31.7-71.5,70.8c0,0,0,96.8,0,109.8h36.3v-48.1l0-18c0,0,0.1-1.4,1.4-1.5
			c1.2,0,1.4,0.8,1.7,1.5c2.7,6.8,17.9,32.6,51.4,24.5c30-8.4,52-35.7,52-68.1C560.2,776.3,528.2,744.6,488.7,744.6z M488.8,851.3
			c-20,0-36.2-16-36.2-35.8c0-19.8,16.2-35.8,36.2-35.8c20,0,36.2,16.1,36.2,35.8C525,835.2,508.8,851.3,488.8,851.3z"/>
	</g>
	<g>
		<path fill="#28A8E0" d="M645.5,744.6c-39.5,0-71.5,31.7-71.5,70.8c0,32.4,22,59.7,52.1,68.1c33.6,8.1,48.7-17.7,51.4-24.5
			c0.3-0.7,0.6-1.5,1.7-1.5c1.3,0,1.4,1.5,1.4,1.5l0,22.1H717v-65.8C717,776.3,685,744.6,645.5,744.6z M645.5,851.3
			c-20,0-36.2-16-36.2-35.8c0-19.8,16.2-35.8,36.2-35.8c20,0,36.2,16.1,36.2,35.8C681.7,835.2,665.5,851.3,645.5,851.3z"/>
	</g>
	<g>
		<path fill="#28A8E0" d="M44.3,706.1H0v174.8h41.3c54.2,0,97.2-10.5,97.2-87.4C138.5,715.9,97.8,706.1,44.3,706.1z M51.5,851
			l-15-0.4V736.4h14.6c33.4,0,50.9,4.6,50.9,57.1C102,848.2,82.2,851,51.5,851z"/>
	</g>
</g>
<g>
	<g>
		<path fill="#28A8E0" d="M384,409.2c-57.6,0-104.3,46.7-104.3,104.3c0,57.6,46.7,104.3,104.3,104.3c57.6,0,104.3-46.7,104.3-104.3
			C488.3,455.9,441.6,409.2,384,409.2z"/>
	</g>
	<g>
		<path fill="#28A8E0" d="M513.7,389.3c30.9,32.3,49.9,76,49.9,124.2c0,61-30.5,114.9-77,147.4c86-26.5,157.2-91.2,189.1-169.5
			c44.1-108.3,3-189.9-65.8-263.8c2.1,9.6,3.3,19.5,3.3,29.7C613.1,320,571.1,372.8,513.7,389.3z"/>
	</g>
	<g>
		<path fill="#28A8E0" d="M395.9,257.3c0,44.1,35.7,79.8,79.8,79.8c44.1,0,79.8-35.7,79.8-79.8c0-44.1-35.7-79.8-79.8-79.8
			C431.6,177.5,395.9,213.2,395.9,257.3z"/>
	</g>
	<g>
		<path fill="#28A8E0" d="M246.6,629.2c-26.3-31.3-42.2-71.6-42.2-115.7c0-91.9,69.1-167.7,158.2-178.3
			c-15.3-22.2-24.3-49-24.3-77.9c0-75.9,61.5-137.4,137.4-137.4c6.3,0,12.4,0.5,18.5,1.3C449.2,82.4,404.4,43,369,0
			C387,188.4,197.4,119.9,127.3,293.5C80.3,410,122.7,553.9,246.6,629.2z"/>
	</g>
</g>
</svg>
