<svg xmlns="http://www.w3.org/2000/svg" width="208" height="27" viewBox="0 0 208 27">
    <g fill="#FFF" fill-rule="evenodd">
        <path d="M204 2.996c0-.36.088-.694.264-1.002A2.001 2.001 0 0 1 206.002 1a1.994 1.994 0 0 1 1.734.994c.176.308.264.642.264 1.002 0 .35-.085.68-.254.986-.169.306-.409.553-.72.739-.31.186-.652.279-1.025.279-.37 0-.71-.092-1.021-.277a1.949 1.949 0 0 1-.723-.736 2.001 2.001 0 0 1-.257-.991zm.324 0a1.675 1.675 0 0 0 2.52 1.46 1.678 1.678 0 0 0 .832-1.46c0-.305-.074-.586-.221-.843a1.665 1.665 0 0 0-1.453-.832c-.301 0-.581.073-.84.22a1.666 1.666 0 0 0-.837 1.455zm1.263.2V4.1h-.397V1.83h.778c.287 0 .51.058.67.175.158.117.237.286.237.509 0 .22-.12.387-.36.502.229.09.344.271.346.545v.163c0 .154.016.264.048.332V4.1h-.409a1.019 1.019 0 0 1-.04-.344c0-.165-.002-.262-.008-.292-.03-.171-.153-.26-.369-.268h-.496zm0-.342h.44a.58.58 0 0 0 .327-.093.272.272 0 0 0 .124-.233c0-.13-.037-.222-.11-.276-.073-.054-.204-.082-.392-.082h-.389v.684zM177.694 1h4.469c.424 0 .823.185 1.08.5l13.15 18.104V1.65c0-.359.31-.649.693-.649h3.22c.383 0 .694.29.694.649V25.35c0 .359-.31.649-.694.649h-3.797c-.42 0-.818-.182-1.075-.493L181.607 6.794v18.557c0 .359-.31.649-.694.649h-3.219c-.383 0-.694-.29-.694-.649V1.65c0-.359.31-.649.694-.649M155.487 4.417c-5.005 0-9.077 4.087-9.077 9.11 0 5.024 4.072 9.111 9.077 9.111 5.006 0 9.078-4.087 9.078-9.11 0-5.024-4.072-9.111-9.078-9.111m0 22.583a13.31 13.31 0 0 1-9.491-3.946 13.409 13.409 0 0 1-3.932-9.527c0-3.598 1.396-6.981 3.932-9.526a13.31 13.31 0 0 1 9.491-3.946A13.31 13.31 0 0 1 164.98 4a13.409 13.409 0 0 1 3.932 9.526c0 3.6-1.396 6.982-3.932 9.527A13.31 13.31 0 0 1 155.487 27M89.721 1h3.558c.398 0 .721.29.721.649V25.35c0 .359-.323.649-.721.649H89.72c-.398 0-.721-.29-.721-.649V1.65c0-.359.323-.649.721-.649M110.145 4.863h-7.465c-.376 0-.68-.29-.68-.649V1.649c0-.359.304-.649.68-.649h19.64c.376 0 .68.29.68.649v2.565c0 .358-.304.649-.68.649h-7.465V25.35c0 .359-.304.649-.68.649h-3.35c-.375 0-.68-.29-.68-.649V4.863zM131.721 1h3.558c.398 0 .721.29.721.649V25.35c0 .359-.323.649-.721.649h-3.558c-.398 0-.721-.29-.721-.649V1.65c0-.359.323-.649.721-.649M80.926 16.409c0 3.638-1.167 6.344-3.501 8.12-1.122.834-2.474 1.455-4.056 1.861-1.582.406-2.325.61-4.366.61-2.02 0-2.757-.204-4.35-.61-1.593-.406-2.951-1.027-4.073-1.861-2.334-1.776-3.5-4.482-3.5-8.12V1.739c0-.364.308-.658.69-.658h3.4c.38 0 .69.294.69.657v14.35c0 1.048.117 1.985.353 2.808a5.156 5.156 0 0 0 1.262 2.183c.606.63 1.447 1.123 2.525 1.476 1.077.353 1.364.53 3.003.53 1.637 0 1.926-.177 3.003-.53 1.077-.353 1.918-.845 2.524-1.476a5.157 5.157 0 0 0 1.262-2.183c.236-.823.354-1.76.354-2.808V1.738c0-.363.309-.657.69-.657h3.4c.38 0 .69.294.69.657v14.67zM37.56 12.02c2.064 0 5.867.455 5.867-3.658 0-3.545-3.803-3.626-5.867-3.626h-5.884v7.283h5.884zM27 2.347C27 1.386 27.25 1 28.166 1h10.086c1.536 0 2.887.1 4.05.3C43.467 1.502 48 2.937 48 8.268c0 5.518-4.247 7.066-6.113 7.172l5.907 9.522c.334.427.017 1.039-.54 1.039h-4.069a.684.684 0 0 1-.543-.264l-6.123-9.98h-4.843v9.595a.662.662 0 0 1-.674.649h-3.145c-.372 0-.857-.207-.857-.687V2.348zM.697 1.082h17.589c.385 0 .697.3.697.67v2.65c0 .37-.312.67-.697.67H4.833v6.515h10.934c.385 0 .698.3.698.67v2.65c0 .37-.313.67-.698.67H4.833v10.66c0 .37-.312.67-.698.67H.697a.684.684 0 0 1-.697-.67V1.752c0-.37.312-.67.697-.67"/>
    </g>
</svg>
